<svg id="Business" height="512" viewBox="0 0 64 64" width="512" xmlns="http://www.w3.org/2000/svg"><path d="m3 18h55v7h-55z" fill="#898890"/><path d="m47 3h-36v22h42v-16z" fill="#6bbef2"/><path d="m46 3v6h7z" fill="#2b86bb"/><path d="m30.333 24-5.333-8h-22v8 1 28h58v-29z" fill="#f6c850"/><path d="m7 38h22a0 0 0 0 1 0 0v21a2 2 0 0 1 -2 2h-18a2 2 0 0 1 -2-2v-21a0 0 0 0 1 0 0z" fill="#ff4b3c"/><circle cx="18" cy="46" fill="#fff" r="3"/><path d="m18 23a9 9 0 0 0 -9 9v6h4v-6a5 5 0 0 1 10 0v6h4v-6a9 9 0 0 0 -9-9z" fill="#fff"/><path d="m30 14h20v2h-20z"/><path d="m30 18h20v2h-20z"/><path d="m61 23h-2v-5a1 1 0 0 0 -1-1h-4v-8a1.033 1.033 0 0 0 -.29-.71l-6-6a1.033 1.033 0 0 0 -.71-.29h-36a1 1 0 0 0 -1 1v12h-7a1 1 0 0 0 -1 1v37a1 1 0 0 0 1 1h3v5a3.009 3.009 0 0 0 3 3h18a3.009 3.009 0 0 0 3-3v-5h31a1 1 0 0 0 1-1v-29a1 1 0 0 0 -1-1zm-7-4h3v4h-3zm-7-14.59 3.59 3.59h-3.59zm-35-.41h33v5a1 1 0 0 0 1 1h6v13h-21.13l-5.04-7.55a1 1 0 0 0 -.83-.45h-13zm16 55a1 1 0 0 1 -1 1h-18a1 1 0 0 1 -1-1v-20h20zm-10-33a6 6 0 0 0 -6 6v5h-2v-5a8 8 0 0 1 16 0v5h-2v-5a6 6 0 0 0 -6-6zm4 6v5h-8v-5a4 4 0 0 1 8 0zm38 20h-30v-14a1 1 0 0 0 -1-1h-1v-5a10 10 0 0 0 -20 0v5h-1a1 1 0 0 0 -1 1v14h-2v-35h20.46l5.04 7.55a1 1 0 0 0 .83.45h29.67z"/><path d="m18 42a3.992 3.992 0 0 0 -1 7.858v5.142h2v-5.142a3.992 3.992 0 0 0 -1-7.858zm0 6a2 2 0 1 1 2-2 2 2 0 0 1 -2 2z"/></svg>